/* XPM */
static char *icon__[] = {
/* columns rows colors chars-per-pixel */
"64 64 256 2",
"   c #000000",
".  c #0A0601",
"X  c #0E0902",
"o  c #0C0C0B",
"O  c #03040A",
"+  c #1E0300",
"@  c #140D02",
"#  c #180F03",
"$  c #1B1203",
"%  c #141414",
"&  c #1C1C1D",
"*  c #10141A",
"=  c #000918",
"-  c #260B00",
";  c #221604",
":  c #2E1300",
">  c #261904",
",  c #2B1C05",
"<  c #301F05",
"1  c #3B1B00",
"2  c #371400",
"3  c #251E16",
"4  c #332105",
"5  c #3A2506",
"6  c #3E2907",
"7  c #3B290B",
"8  c #27241E",
"9  c #3D2D11",
"0  c #1B1E22",
"q  c #141A24",
"w  c #001332",
"e  c #1E2024",
"r  c #172232",
"t  c #242424",
"y  c #2B2B2B",
"u  c #22262D",
"i  c #202630",
"p  c #323233",
"a  c #3C3C3C",
"s  c #393735",
"d  c #353434",
"f  c #4A0D00",
"g  c #441A00",
"h  c #4A1800",
"j  c #432301",
"k  c #432C07",
"l  c #4A2D04",
"z  c #472F08",
"x  c #492F08",
"c  c #4D2700",
"v  c #552C00",
"b  c #582700",
"n  c #4C3208",
"m  c #523509",
"M  c #563809",
"N  c #5B3C09",
"B  c #563704",
"V  c #583C15",
"C  c #633401",
"Z  c #653C01",
"A  c #603F0A",
"S  c #6A3600",
"D  c #763F00",
"F  c #65420B",
"G  c #6A450B",
"H  c #6F480C",
"J  c #6C4404",
"K  c #764100",
"L  c #734B0C",
"P  c #794E0D",
"I  c #794803",
"U  c #7D510D",
"Y  c #774F10",
"T  c #7B5416",
"R  c #5C4520",
"E  c #44423F",
"W  c #4B463E",
"Q  c #4F483D",
"!  c #544A3C",
"~  c #5A4E3B",
"^  c #5E503A",
"/  c #75592D",
"(  c #6A5637",
")  c #6E5836",
"_  c #645339",
"`  c #685538",
"'  c #675537",
"]  c #735B35",
"[  c #795E34",
"{  c #725C39",
"}  c #6F552D",
"|  c #7D6133",
" . c #76613D",
".. c #001D4E",
"X. c #001751",
"o. c #09234B",
"O. c #1E2E47",
"+. c #11274A",
"@. c #142949",
"#. c #1A2C48",
"$. c #202F47",
"%. c #243146",
"&. c #2C3544",
"*. c #253349",
"=. c #303743",
"-. c #343A43",
";. c #3C3E41",
":. c #3F4040",
">. c #3F4248",
",. c #404040",
"<. c #4B4B4B",
"1. c #45484B",
"2. c #534D44",
"3. c #545454",
"4. c #5C5C5D",
"5. c #55585D",
"6. c #49515C",
"7. c #6A5C45",
"8. c #786545",
"9. c #716657",
"0. c #5D6470",
"q. c #636363",
"w. c #6B6B6B",
"e. c #757574",
"r. c #7C7B7B",
"t. c #737072",
"y. c #8A4A00",
"u. c #834700",
"i. c #914F00",
"p. c #83550E",
"a. c #87580E",
"s. c #8C5B0F",
"d. c #8D5803",
"f. c #9B5B00",
"g. c #915E0E",
"h. c #955702",
"j. c #875B16",
"k. c #A35F00",
"l. c #94600F",
"z. c #966210",
"x. c #9B6510",
"c. c #9C6816",
"v. c #A46101",
"b. c #AB6400",
"n. c #AF710E",
"m. c #A56B11",
"M. c #A96E12",
"N. c #A16A19",
"B. c #AD7112",
"V. c #B47513",
"C. c #BA7914",
"Z. c #B77813",
"A. c #B3700B",
"S. c #895D20",
"D. c #8E6A2F",
"F. c #8D6524",
"G. c #946D2E",
"H. c #986F2D",
"J. c #9E6D27",
"K. c #9C712D",
"L. c #846432",
"P. c #896730",
"I. c #8C6930",
"U. c #83693B",
"Y. c #9D7432",
"T. c #A3752B",
"R. c #A8772A",
"E. c #AB7929",
"W. c #A97626",
"Q. c #B67F27",
"!. c #B27D28",
"~. c #B87F27",
"^. c #A17734",
"/. c #C17E14",
"(. c #847357",
"). c #967D56",
"_. c #9F7746",
"`. c #A17745",
"'. c #8D7F69",
"]. c #BC8226",
"[. c #BA8329",
"{. c #A8803C",
"}. c #C58115",
"|. c #CC8415",
" X c #D28916",
".X c #DB8F17",
"XX c #DD9117",
"oX c #DC931F",
"OX c #EA8E00",
"+X c #EB9000",
"@X c #E09317",
"#X c #E3951B",
"$X c #E89718",
"%X c #E6981D",
"&X c #EB9B1B",
"*X c #F39F1A",
"=X c #FAA31A",
"-X c #FBA318",
";X c #C48624",
":X c #C78824",
">X c #CD8B22",
",X c #D28E21",
"<X c #D69020",
"1X c #D99120",
"2X c #D0993D",
"3X c #A5885B",
"4X c #B69054",
"5X c #B38B4C",
"6X c #94856E",
"7X c #8E8475",
"8X c #958977",
"9X c #B4986D",
"0X c #BCA47E",
"qX c #C89850",
"wX c #F0B14E",
"eX c #E0A54B",
"rX c #E1AF62",
"tX c #E4B66E",
"yX c #787D86",
"uX c #77808F",
"iX c #828282",
"pX c #8D8D8D",
"aX c #8C8985",
"sX c #93918E",
"dX c #939394",
"fX c #9B9B9C",
"gX c #979795",
"hX c #AAA59C",
"jX c #A6A6A6",
"kX c #ABABAB",
"lX c #A5A8AB",
"zX c #B5B5B5",
"xX c #B8B9BB",
"cX c #CBB593",
"vX c #F1DEBE",
"bX c #EBD4AC",
"nX c #FFE4B9",
"mX c #C8C8C8",
"MX c #CBD1DA",
"NX c #DBDBDC",
"BX c #D8D7D3",
"VX c #C7CBD2",
"CX c #FAE9C7",
"ZX c #FFF3DB",
"AX c #F2ECD3",
"SX c #D4DAE3",
"DX c #D3DFF2",
"FX c #D9E6FB",
"GX c #E5E5E4",
"HX c #EDEDEC",
"JX c #EEEAE3",
"KX c #E6EBF5",
"LX c #F4F4F3",
"PX c #FFFFFF",
"IX c #F7F9F8",
"UX c None",
/* pixels */
"UXUXUXUXUXUX,.,.,.,.,.:.:.:.:.E ,.,.,.:.:.:.,.,.,.,.,.,.:.:.E ;.-.E ,.,.,.,.,.:.,.E ;.;.,.E ,.:.:.:.:.:.,.a ,.,.,.,.UXUXUXUXUXUX",
"UXUXUXUX:.:.,.,.:.:.,.,.:.:.,.,.,.,.,.,.:.:.,.,.:.-.&.,.:.:.-.W W =.E ,.,.&.=.E ,.,.,.E ,.;.,.,.:.:.E :.,.,.,.,.,.,.,.,.UXUXUXUX",
"UXUXUX,.,.,.,.,.:.E ,.,.,.,.,.,.:.E ,.,.,.,.,.,.%.` P.=.;.;.E T.R.W -.;.&.L.) %.,.;.,.;.:.E ,.,.,.,.,.,.,.,.,.,.,.,.,.a a UXUXUX",
"UXUX,.,.,.,.,.E :.:.,.,.,.,.,.,.:.:.:.,.=.=.,.;.W J.D.L.;.=.L.~ ! P.=.;.L.G.K.! ;.,.=.&.;.,.,.,.:.,.,.,.,.,.,.,.,.,.,.,.a a UXUX",
"UX,.:.:.:.:.:.:.,.,.,.,.,.,.,.,.:.:.-.! T.) E &.] ` =.~ ,.:.%.| L.%.,.;.! -._ ] &.,.( T.~ =.,.,.:.:.,.,.,.,.,.,.,.a ,.,.,.s 1.UX",
"UX,.:.:.E :.:.:.,.,.,.,.,.,.;.;.,.;.%.I.G.( ! ;.&.W >XP.,.&.[ R.R.L.&.,.L.>X! %.;.! ( I.I.&.,.,.;.,.,.,.,.,.,.,.,.,.,.,.,.,.a UX",
",.,.:.:.,.,.,.:.,.,.,.,.,.,.,.-.&.;.E ] W ) W =.;.T.] ] ) -.) ! ! ) -.) ] ] E.a =.W ] W ] W ;.&.-.;.E ,.,.,.;.,.,.,.,.,.,.,.p 3.",
",.,.,.,.,.,.,.,.,.,.,.,.,.=.) J.L.W ;.$.[ ;XG.~ ,.W ( I.&.&.&.~.;X&.&.&.P.) W ,.! P.;XP.O.;.W [ T.] =.,.,.,.,.,.,.,.,.,.,.,.,.,.",
",.,.E :.,.,.:.:.,.,.,.:.:.&.I.P.~ ;.%.;.H.~ ~ E $.;.].[.H.;.G.P.L.K.-.G.].;X,.$.,._ ! H.,.%.-.~ L.D.&.,.,.,.,.,.,.,.,.,.,.E ,.a ",
",.,.,.:.,.E :.:.,.;.;.;.a ;.] ! L.H.( E -.) ,XH.! ] L.! ` E =.[ | -.,.' W L.[ W H.,X] -.,.' H.P.Q ] E ;.;.;.,.,.,.,.,.:.,.;.,.,.",
",.,.:.:.,.,.,.;.,.;.E W ,.,.&._ ~.] ~ O.O.!.G.) ! #.W #XK.;.] >X,X[ ;.G.%X! #.! ] G.Q.$.#.! ] Q.) &.,.E W E ;.;.,.,.,.,.,.,.,.,.",
",.,.:.:.,.,.,.,.;.W H.I._ %.$.] { W T.L.! _ _ T.] ,.Q.K.P.[ [ ] ] [ [ I.H.~.E ) E._ ~ ~ L.K.! ] | O.%.~ P.K.! ;.,.,.,.,.,.,.,.,.",
",.,.,.,.,.,.,.,.;.! G.W ` ) ! ,.&.E.;X[ -...T.,XG.] W ] H.&.$.].;X$.*.G.[ W ] G.,XR...-.[ ].!.&.;.! ) ( E G.~ -.E ,.,.,.,.,.,.,.",
",.,.,.,.,.,.,.,.;.W _ _ ].G.! +.-.K.~ L.P.] G.( L.,.;.,X,XT.R.E.E.R.T.,X,X,.-.P.( G.] P.P.~ K.;.+.W D.]._ _ Q a ;.;.E ,.,.,.,.,.",
",.,.,.,.,.E ;.&.&.,.=.( G.;.L.H.( %.( #XE.) ..L.=XT.K.P.L.) ,.P.P.,.) L.P.T.T.*XI...( T.#X{ %.( G.P.;.G.] &.,.-.&.-.E ,.,.;.:.,.",
",.a ,.,.,.;.W ] [ ;.$.! ! L.,XG.W ..G.H._ P.] ].G.P.&.W %XT.[ #X#X| K.&X! %.P.G.].] L._ H.G.o.,.D.,XP.! ! %.-.] [ ! ;.,.,.,.,.,.",
",.,.,.,.a =.G.H.~ E ( W +.| G.W !.R._ %.].%XK.%.( %XE.;X~.T.!.[ [ !.T.!.:XE.%X] %.H.#X:X&.~ T.!.Q I.P.@.,.) <.~ H.H.-.;.,.,.,.,.",
",.,.,.,.,.&.L._ ~ [.P.=.&._ E H.oXL.:.! ].D.| ~ ;X;XG.[ ;.&.-.&.&.-.&.-.] G.].:X^ | P.].~ ;.L.<XT.,._ &.=.L.Q._ ~ L.&.:.,.,.,.:.",
",.,.,.,.,.;.! W P.G.:.K.E.E X.D.I.| <X!.%._ -X#XG.;.O.&.-.:.:.:.a :.:.;.&.%.;.D.1X-X( %.E.<XL.P.G.X.;.E.K.,.I.I.W ~ -.:.,.,.,.,.",
",.,.,.,.-.=.-.=._ ) | <X) ( G.| @.R.>X] ! ].].,.%.-.E ,.:.:.:.:.,.,.,.,.,.,.-.%.:.Q.;XQ ] :X!.+.] G.( ) ,XL.) ' p -.&.;.,.,.:.,.",
",.,.,.-.E L.W $.;.;.! I.( oX[.! ;.E.) E.*XE.-.&.,.E ;.;.,.,.,.,.,.,.,.,.;.,.E E &.-.T.*X~.( T.E ! !.#X) I.^ -.;.$.E L.W -.,.,.,.",
",.,.=.` T.] E L.) @.;.! Q E.] E.1X_ #.,XK.$.-.,.;.E ,.E ,.,.:.,.,.:.;.,.E ,.;.,.,.-.O.G.oXO.~ oX~.) E.! ! ;.+.( I.E ( T.) &.,.,.",
",.,.-.` G.-.R.T.! ] K.$.&.L.~ :XT.| ].].;.=.,.,.;.,.;.,.,.:.:.,.,.,.,.,.E ;.,.,.,.,.-.-.~.].| T.>X^ L.-.#.G.[ ~ H.!.-.G.) -.,.,.",
"<.,.,.&.[ ! H._ L.<X) ( ].Q +.T.[ :X1XW %.E ,.,.E ,.,.,.,.,.,.,.,.,.,.,.,.;.E ,.,.,.,.&.E ,X,X] T.@.,.].] ) >XI.~ K.~ [ &.,.,.,.",
"p ,.<.1.>.-.~ ) ' K.^ %XK.) ~.P.+.].G.#.:.:.:.,.,.,.a ,.a ,.:.,.,.,.a :.:.:.:.E ,.,.,.E #.P.;X@.| ].) G.&X_ H.) ) _ =.;.;.1.,.1.",
"  o * u W s e & e ) ! R.[ ].<X| W.A.8 q y a ,.E ,.,.,.a a ,.,.,.,.,.a p :.,.,.,.,.,.a y * 8 n.E.| >X:X{ T.! } t 0 0 d <.>.-.a p ",
"    . J - * 8XsXw.s w  .7.' ^.T OX).uXaX4.y y ,.,.,.a <.s s ,.,.,.a 1.<.,.,.,.,.,.t p q.pXyX(.OXj.Y.' _  .w s e.sX8Xp 9 F.3 O   ",
"  . l.1 u SXPXPXPXLX9.j.r { Y <.AXPXPXPXPXBX<.t 1.a y iXxXt p ,.,.t gXLX4.y ,.,.& 5.NXPXPXPXPXvX1.T U.*.c.] BXPXPXPXIX6.: d..   ",
"    5 V KXPXt.`.cXJXwXj F k.R KXPXgX5.q.kXPXPX,.p <.y e.PXzX& a <.& kXPXw.p <.y 5.PXPXkXw.w.zXPXFXR A.T c CXPXcX_.7XZX0.j x     ",
"    . 7.PX0X    u.# f.n g.f.VXIX8.        <.PXNX  & % 3.PXPXzX  y % dXPX3.& t % HXPXE         (.IXzXy.i.9 PXmXf   + j   6       ",
"      = PXNXa   .   ; M   {.PXbXh           jXPXt     y PXHXPXdX    r.PXt     a PXiX          g CXPXT.  : LXPX9.                ",
"      @ 5.PXPXSXe.O : n   9XPXqXS           a PXw.    a PX<.r.PXgX  w.PXy     iXPXy           b rXPX4X  ; L.DXPXKXpX&   >       ",
"    k B   / hXPXPXGXT.1 u.tXPXeX2           a PXq.    a PX3.  jXPXw.4.PXy     iXPXy           : rXPXqXh.k y.V yXIXPXPX-.j n     ",
"  , M.. H K   v.9XPXNX: i.2XPXbXh           kXPXt     s PXt.    jXPXHXPXy     a PXiX          1 CXPX[.f.7 }.c + b.7.LXIXO f.4   ",
"  . n F   Z +   f GXPXm   C ZXPX5X        <.PXVX      s PXw.      kXPXPXt       GXPXs         3XIXvXS   F c   K     bXPXD.1 .   ",
"      > sXMX'.=.dXPXlX2   v S.IXPXgX<.1.fXPXLX%       a PXe.        kXPXy       t PXPXdX1.<.jXPXKXH C   1 6.JXaX-.8XPXGX<       ",
"        t.PXPXPXPXzXn Z M @X1 J.CXPXPXPXPXmX&         p HX4.          kX1.        y VXPXPXPXPXnXc.1 .XN v 3XHXPXPXPXMX0         ",
"      $ . @ 3X7X5X. v.N.5 B.z.  K ^.5.4.y               o               o .         . y q.3.G.I   s.V.7 x.b.  4X6X).. . ;       ",
"    X F $ I 1   v.J 4 m.x   s., x v.                                                        f.N ; s.  k m.5 Z b.  2 d.$ F X     ",
"    5 x.; n g.n $ p.    F @ P L s.&XM                                                     x $Xz.L p.X A     U $ k g.m ; z.k     ",
"    . 4 L . X 4     , . p.n /.C.5 m }.;                                                 $ C.N 4 Z.|.x p.X >     < #   L 5 .     ",
"          .     X > G x .XH 6 z.F   Z.l.                                                a.}.  M z.k G XXn F 4 .     .           ",
"          .   n k L B.4 G M.$   l.G s.XXs.                                            p.XXz.N x.  X M.G , M.U k m   .           ",
"          n , g.m > s.s.    G 6 C.C.x $ /.P                                         G }.$ k C./.k F     a.g.< k z., n           ",
"        ; p.. n s.m   # > . x.F n x.g.  L =XM.>                                 $ M.*Xp.  a.x.M N z.. > #   k s.m . U ,         ",
"        $ L G $   ,     G k x.Z.N   m M.n N U }.k #                         # 6 /.a.N n m.A   M Z.m.6 L     , . @ G L >         ",
"            , >     5 , m.L 5 k F 4 6 #XB.4   C.@XC.F @ @             @ X F Z.@X}.  , M.$Xx , G k 5 F M.4 4     ; 4             ",
"                . X L $ M z.A     M.n m z z.a.N 6 ;  X}.Z.a.z P U z p.Z./. X< 4 N U z.x M x M.    N z.A # L X .                 ",
"                x , g.U 5   . z , V.C.G   # @Xm.L # L a.$ z.-Xa.p.=Xm.$ U U # G m.&X;   F Z.Z.4 k .   4 P x., x                 ",
"              X P $ , N z     s.A 4 k k U k G n k C.L H n k U $ # P z z H L Z.n k G 6 P 6 k 4 M s.    k N , # L #               ",
"              . G G 5     4 > N C.L #   H /.G k   H $XF P M.U l.z.P M.U F XXU   6 F C.U   X L C.F > 5     4 G G @               ",
"                  . @     n G . n 4 > x 4 x.L m s.k n $   g./.    Z.x.  @ m 5 s.m L m.4 x , 4 x X F N     @ X                   ",
"                      X , 4 M.L 4     x.A n @   H |.s.F U k 6 N N k 6 U F a.|.U   . n N x.    , L M.5 > #                       ",
"                      @ N   6 , # ; $ M Z.U 4 x , U ,   6  XV.x 6 B. Xn   ; p., x 4 L Z.F $ , @ , 6   N $                       ",
"                      . L G k     ; U . k     L s.6 m ; $ N k     5 N ; > n k p.p.    k   L ,     6 G p..                       ",
"                        $ , @   #   p.l.F # # X B.s., # M.k P k 7 p.k m.$ ; p.V.@ # @ F s.s.. #   X > $                         ",
"                                n k . k     A N . 4     $ XXn     k XX,     4 . m F     k X 5 m                                 ",
"                                ; p.n 6       l.s.L # k n   k # # k   n n X G a.x..     6 n a.,                                 ",
"UX                                M m $   , , , n     . s.z.U @ . U g.s.@     n , , 4   # n N                                 UX",
"UX                                        # L , n >   $ , L         L , @   ; m , L $                                         UX",
"UXUX                                        k x.5 .   N z . F X . G X 5 F     5 x.x                                         UXUX",
"UXUXUX                                                  L g.>     ; s.U .                                                 UXUXUX",
"UXUXUXUX                                                # @         @ #                                                 UXUXUXUX",
"UXUXUXUXUXUX                                                                                                        UXUXUXUXUXUX"
};
