/* XPM */
static char *icon__[] = {
/* columns rows colors chars-per-pixel */
"32 32 161 2",
"   c #000000",
".  c #090601",
"X  c #0E0901",
"o  c #0D0D0D",
"O  c #130C02",
"+  c #180F02",
"@  c #1C1203",
"#  c #111212",
"$  c #1C1C1C",
"%  c #250D00",
"&  c #280F00",
"*  c #221503",
"=  c #251804",
"-  c #2D1D05",
";  c #3A1900",
":  c #342206",
">  c #3C2604",
",  c #3E2806",
"<  c #232323",
"1  c #282523",
"2  c #2C2C2C",
"3  c #3D372D",
"4  c #262A31",
"5  c #343434",
"6  c #393836",
"7  c #3B3B3B",
"8  c #442405",
"9  c #432C07",
"0  c #4A2C02",
"q  c #432C08",
"w  c #482E08",
"e  c #4C3208",
"r  c #533609",
"t  c #563909",
"y  c #5D3C0A",
"u  c #4E3310",
"i  c #46361E",
"p  c #613300",
"a  c #603D07",
"s  c #613F0A",
"d  c #723F02",
"f  c #4D3B23",
"g  c #463C2C",
"h  c #4C3D28",
"j  c #4A3E39",
"k  c #65410A",
"l  c #6C450C",
"z  c #6F480C",
"x  c #764907",
"c  c #74440A",
"v  c #744B0C",
"b  c #794D0B",
"n  c #7D510D",
"m  c #6B4613",
"M  c #7F571E",
"N  c #574427",
"B  c #584527",
"V  c #45433F",
"C  c #4A453E",
"Z  c #4F483D",
"A  c #534A3C",
"S  c #5B4D3B",
"D  c #5F5037",
"F  c #5D503A",
"G  c #64462B",
"H  c #624C2C",
"J  c #7E5720",
"K  c #6A5636",
"L  c #6E5936",
"P  c #635339",
"I  c #6D5938",
"U  c #745B35",
"Y  c #795E34",
"T  c #7E6133",
"R  c #353A43",
"E  c #3C3E41",
"W  c #3F4041",
"Q  c #404040",
"!  c #484747",
"~  c #4E4942",
"^  c #4F4F4F",
"/  c #574F45",
"(  c #524D49",
")  c #535353",
"_  c #5C5857",
"`  c #655D55",
"'  c #6C5E51",
"]  c #756344",
"[  c #7D6448",
"{  c #7C6E5C",
"}  c #5F626A",
"|  c #636363",
" . c #6E6B68",
".. c #796B60",
"X. c #7A7874",
"o. c #7F7F7F",
"O. c #854F00",
"+. c #82540D",
"@. c #87580E",
"#. c #8A5A0F",
"$. c #8C601C",
"%. c #8A652B",
"&. c #8D692F",
"*. c #926C2E",
"=. c #986F2E",
"-. c #9C712D",
";. c #836432",
":. c #896731",
">. c #8C6930",
",. c #906A30",
"<. c #9C7138",
"1. c #A4752B",
"2. c #A8772A",
"3. c #A9782A",
"4. c #A17530",
"5. c #A07538",
"6. c #9A8060",
"7. c #898178",
"8. c #9D8970",
"9. c #A2947E",
"0. c #838384",
"q. c #878788",
"w. c #8C8C8C",
"e. c #8D8F93",
"r. c #929293",
"t. c #9E9A92",
"y. c #97999B",
"u. c #9D9D9C",
"i. c #AE9F84",
"p. c #A29F99",
"a. c #BAA383",
"s. c #B7AA95",
"d. c #BDAD96",
"f. c #A3A3A3",
"g. c #A6A7A8",
"h. c #ABABAB",
"j. c #BDB6AC",
"k. c #B3B3B4",
"l. c #BEB6B7",
"z. c #BCB9B6",
"x. c #B2B6BC",
"c. c #BCBBBA",
"v. c #D6BA8E",
"b. c #D8BD91",
"n. c #C0B5A7",
"m. c #C2B8A8",
"M. c #CAB9AC",
"N. c #C5BDB2",
"B. c #DAC3A6",
"V. c #E4D0B1",
"C. c #F3D9B4",
"Z. c #F9DEB7",
"A. c #F9E1BE",
"S. c #C4C4C4",
"D. c #CCCBCB",
"F. c #DDDAD6",
"G. c #E4D8C8",
"H. c #EBE5DB",
"J. c #E4E4E4",
"K. c #EAEAEA",
"L. c None",
/* pixels */
"L.L.W W E Q Q Q Q Q Q Q E E E V V W E E V Q Q Q Q Q Q Q W Q L.L.",
"L.Q W W V E Q Q Q 7 E E D K 7 K K R P P R W W Q Q Q Q Q V 7 7 L.",
"Q W V W Q Q V R R S Y R S Y E K U W Y D E U S R R W Q Q Q Q 6 | ",
"Q Q E j Q 7 E P V V ;.A A :.! U U Q :.A A ;.V Q P 7 Q W Q Q W 7 ",
"Q Q Q Q W E E Y U R U ;.! >.S U T A &.V T U E U Y E E E Q Q Q Q ",
"Q Q Q Q Q I E C :.P Z =.S >.U ;.;.L >.S -.A D >.Z E K V W W Q W ",
"Q Q Q R V U T E P =.A &.Y T :.;.;.:.T Y >.A -.P E Y Y V R V Q Q ",
"7 Q Q A V V Y *.Q :.&.L 1.;.1.=.-.1.;.1.L >.>.W *.Y V V A E Q Q ",
"Q Q W T Y A Q ;.-.S 1.;.1.,.Y K K U ,.1.;.1.S -.T C A Y Y E Q Q ",
"Q W E E U ,.Y F ;.1.T 2.A R R R R R R A 2.T 1.;.S U *.L E E E Q ",
"E V L A E A >.=.Y *.=.R R Q Q W Q Q Q R R *.-.Y -.>.S E A L Z E ",
"! ~ I :.:.U S Y 1.=.R E Q Q Q W Q Q Q Q E R ,.3.Y D I >.:.K ~ W ",
"$ 5 5 3 B &.4.,.$.g 4 E Q 7 6 Q Q 5 E Q 7 4 g $.&.1.:.N 3 6 W 7 ",
"  > _ z.g.P H ;.b.x.u.7 7 _ ) 5 7 o.^ 7 7 f.x.v.%.I D u.N.X.u . ",
"  h F.S 6.$.d N.r.Q r.z.$ ^ K.) $ S.) 1 S.r.! y.j.d i.M.S ` =   ",
"  # c.e.1 % ] C.&     k.5 < D.c.5 u.< Q g.    % Z.G ' D.| .     ",
"O 0 9 8.G.[ <.A.%     k.5 2 r.6 c.D.< Q g.    % A.5.t G n.k.e O ",
". : { j l.7.; V.t.7 r.h.  6 k.  7 J.4 . k.w.7 p.B.8 f { A H.i . ",
"     .m.9.l x m a.f.0.o   $ )     2 $   # q.f.a.l x J s.n.(     ",
"  q 0 0 0 , 9 k O.*                         @ O.k , , 0 0 0 w   ",
"  @ @ O + , n n y @.                        n s +.n , @ O + *   ",
"    X > k v w , #.n v .                 . z n #.> q v k , X     ",
"    9 e : O > +.s y #.n -             - b #.y k @.: O : e q     ",
"    . O . q v , 9 n y n @.v e , , e v +.n y +.q , v 9 . O .     ",
"      . w y * - v y w n t @.v #.@.v @.t n e t v - @ y w X       ",
"      . : X @ t y * n r k z k k k l l k r n * t y * X : .       ",
"          . 9 r O q z - v w k y y k 9 v - l w X r 9 X           ",
"          . , O O y : - l = k 9 9 k = l : - y @ X q .           ",
"                q w X w r @ k : : k @ e q X w w                 ",
"                @ @ O e : O y = = y O : r O @ @                 ",
"L.                    : O O r @ @ r + O :                     L.",
"L.L.                        O     O                         L.L."
};
