/* XPM */
static char *icon__[] = {
/* columns rows colors chars-per-pixel */
"16 16 193 2",
"   c #000000",
".  c #010000",
"X  c #010100",
"o  c #020100",
"O  c #010203",
"+  c #040301",
"@  c #060401",
"#  c #020304",
"$  c #060606",
"%  c #0C0300",
"&  c #0B0600",
"*  c #0A0601",
"=  c #0A0701",
"-  c #0D0801",
";  c #090909",
":  c #150B03",
">  c #150E01",
",  c #170F02",
"<  c #1B0C00",
"1  c #1D0D00",
"2  c #171003",
"3  c #181003",
"4  c #1E1403",
"5  c #1F1403",
"6  c #1C1509",
"7  c #210C00",
"8  c #220E00",
"9  c #211604",
"0  c #221604",
"q  c #2A1B04",
"w  c #2A1B05",
"e  c #2B1B05",
"r  c #2C1D04",
"t  c #2C1D05",
"y  c #2D1E04",
"u  c #381F00",
"i  c #352205",
"p  c #352306",
"a  c #372506",
"s  c #3A2100",
"d  c #382506",
"f  c #3E2806",
"g  c #3E2807",
"h  c #29201C",
"j  c #272221",
"k  c #2E2822",
"l  c #302A22",
"z  c #202630",
"x  c #222933",
"c  c #2D333E",
"v  c #2D343F",
"b  c #313131",
"n  c #3D3C3B",
"m  c #3D3C3C",
"M  c #432B07",
"N  c #432C07",
"B  c #462D07",
"V  c #4B3108",
"C  c #4C3208",
"Z  c #4E3308",
"A  c #4F3308",
"S  c #4F3409",
"D  c #503309",
"F  c #513408",
"G  c #513508",
"H  c #513509",
"J  c #523508",
"K  c #4A3F30",
"L  c #644106",
"P  c #644107",
"I  c #65410B",
"U  c #64420B",
"Y  c #734100",
"T  c #744200",
"R  c #724608",
"E  c #72470A",
"W  c #714A0C",
"Q  c #724A0D",
"!  c #4F4028",
"~  c #524229",
"^  c #5E4828",
"/  c #4B4130",
"(  c #42413F",
")  c #44423F",
"_  c #47443E",
"`  c #4E473D",
"'  c #4F493D",
"]  c #53493C",
"[  c #534A3C",
"{  c #534A3D",
"}  c #50493E",
"|  c #5A4E3A",
" . c #5B4F3A",
".. c #5A4E3B",
"X. c #5C4F3A",
"o. c #664F2A",
"O. c #644D2D",
"+. c #69532F",
"@. c #624D35",
"#. c #6B5737",
"$. c #6C5837",
"%. c #6E5836",
"&. c #6E5936",
"*. c #6F5936",
"=. c #625339",
"-. c #635339",
";. c #655338",
":. c #655438",
">. c #725536",
",. c #725A35",
"<. c #735B36",
"1. c #735C36",
"2. c #7B5F33",
"3. c #7B5F34",
"4. c #253042",
"5. c #253043",
"6. c #3A3D41",
"7. c #3B3D41",
"8. c #383C42",
"9. c #3A3C42",
"0. c #3B3E43",
"q. c #3C3E41",
"w. c #3D3E41",
"e. c #3E3F41",
"r. c #404040",
"t. c #414040",
"y. c #414140",
"u. c #424140",
"i. c #434242",
"p. c #454444",
"a. c #464644",
"s. c #474645",
"d. c #464646",
"f. c #4B4B4A",
"g. c #4D4B4D",
"h. c #4E4B4D",
"j. c #524E4C",
"k. c #514F50",
"l. c #51555A",
"z. c #50555B",
"x. c #585858",
"c. c #5B5B5B",
"v. c #595C5F",
"b. c #6A5A45",
"n. c #71604A",
"m. c #4B5565",
"M. c #4D5667",
"N. c #5D6062",
"B. c #656565",
"V. c #6F6E6E",
"C. c #7A7061",
"Z. c #7A7165",
"A. c #707070",
"S. c #777777",
"D. c #7A7472",
"F. c #82540D",
"G. c #83560D",
"H. c #81540E",
"J. c #84550E",
"K. c #85570E",
"L. c #86570F",
"P. c #8A5D17",
"I. c #8B5E16",
"U. c #8D6526",
"Y. c #906829",
"T. c #996F2D",
"R. c #9D712C",
"E. c #9C722D",
"W. c #9F722D",
"Q. c #9E732D",
"!. c #856531",
"~. c #866531",
"^. c #8A6731",
"/. c #8B6831",
"(. c #8F6A30",
"). c #906A30",
"_. c #886F49",
"`. c #897552",
"'. c #A4855E",
"]. c #A8845A",
"[. c #988465",
"{. c #998667",
"}. c #92887C",
"|. c #9A8A7C",
" X c #A98760",
".X c #A58862",
"XX c #AC9B7E",
"oX c #808080",
"OX c #919191",
"+X c #A29180",
"@X c #ADA8A2",
"#X c #AEABAA",
"$X c None",
/* pixels */
"$Xr.r.w.w.( _ ` ` _ r.w.6.r.b $X",
"r.r.6.r.[ | | &.#.| | { r.6.m s.",
"t.6.i.X.-.:.1.2.3.,.;.;.X._ 0.m ",
"w.( X.:.&.!.E.E.E.E.!.&.:.X.r.w.",
"w.' -.,.Y.Q.*.[ { &.W.(.,.=.{ 6.",
"a.K +./.I./ 4.v c 5.K P./.o.~ f.",
"h Z._.U.+Xm.i.) s.p.M.XXY.`.C.k ",
"h @X@.'.k.N.V.OXS.A.N.g..X+XD.% ",
": }.|. Xj.z.x.B.oXc.l.k.].>.#Xl ",
", b.O.R {.z O ; $ O x [.R ^ n.6 ",
"= 7 u P T 1         < Y P s 7 & ",
"  0 N Z Q L.Z w w Z K.Q V M 0   ",
"    t N Z U H.K.H.H.I Z N t     ",
"    + t g J J J J J J f t @     ",
"        5 i B a d B a 5         ",
"$X        & , 2 3 3 -         $X"
};
