<?xml version="1.0" encoding="utf-8"?>
<!-- Generator: Adobe Illustrator 17.1.0, SVG Export Plug-In . SVG Version: 6.00 Build 0)  -->
<!DOCTYPE svg PUBLIC "-//W3C//DTD SVG 1.1 Basic//EN" "http://www.w3.org/Graphics/SVG/1.1/DTD/svg11-basic.dtd">
<svg version="1.1" baseProfile="basic" id="Layer_1"
	 xmlns="http://www.w3.org/2000/svg" xmlns:xlink="http://www.w3.org/1999/xlink" x="0px" y="0px" viewBox="0 0 290 290"
	 xml:space="preserve">
<g>
	<path fill="#FFFFFF" d="M77.2,156.6c20.8-14.7,45.1-22.6,69.6-28.8c10.7-2.7,22-4.4,32.4-8.2c9.2-3.3,16-9.4,17.1-19.4
		c0.3-2.3-1.8-4.1-3.7-4.8c-10.4-4.1-22.8,1.3-32.1,6c-10.4,5.2-20.1,12-29,19.3c-5,4.1,2.1,11.1,7.1,7.1c7.7-6.3,16-11.8,24.7-16.5
		c7.4-4,18.1-9.6,26.7-6.2c-1.2-1.6-2.4-3.2-3.7-4.8c-0.9,8.2-11.3,10.6-17.9,12.2c-10.8,2.7-21.7,5-32.4,7.9
		c-22.5,6-44.8,14.2-63.9,27.7C67,151.6,72,160.3,77.2,156.6L77.2,156.6z"/>
</g>
<rect fill="#ABAFB0" width="290" height="290"/>
<g>
	<path fill="#FFFFFF" stroke="#ABAFB0" stroke-miterlimit="10" d="M143.5,73.1c-39.7,0-71.9,32.2-71.9,71.9
		c0,39.7,32.2,71.9,71.9,71.9c39.7,0,71.9-32.2,71.9-71.9C215.3,105.3,183.2,73.1,143.5,73.1z M144.6,163c-9.7,0-17.6-7.8-17.6-17.3
		c0-9.6,7.9-17.3,17.6-17.3s17.6,7.8,17.6,17.3C162.2,155.3,154.3,163,144.6,163z"/>
	<ellipse fill="#ABAFB0" stroke="#FFFFFF" stroke-miterlimit="10" cx="144.6" cy="145.7" rx="17.6" ry="17.3"/>
</g>
</svg>
