<?xml version="1.0" encoding="utf-8"?>
<!-- Generator: Adobe Illustrator 17.1.0, SVG Export Plug-In . SVG Version: 6.00 Build 0)  -->
<!DOCTYPE svg PUBLIC "-//W3C//DTD SVG 1.1 Basic//EN" "http://www.w3.org/Graphics/SVG/1.1/DTD/svg11-basic.dtd">
<svg version="1.1" baseProfile="basic" id="Layer_1"
	 xmlns="http://www.w3.org/2000/svg" xmlns:xlink="http://www.w3.org/1999/xlink" x="0px" y="0px" viewBox="0 0 290 290"
	 xml:space="preserve">
<rect x="0" y="0" fill="#ABAFB0" width="290" height="290"/>
<g>
	<path fill="#FDFDFD" d="M185,155.4c-2.7-16.6-9.8-30.8-22.5-42c-3.7-3.3-7.6-5.2-12.7-4.8c-4.1,0.3-8.2,0.1-12.3,0.1
		c-3.6,0-6.7,1.3-9.4,3.4c-8.9,7-15.2,15.8-19.5,26.2c-2.3,5.5-3.7,11.2-4.7,17c-0.6,3.5,1,6.3,3.8,7.2c3.8,1.2,7.1-0.6,7.9-4.6
		c1-5.5,2.3-10.9,4.5-16c1.5-3.4,3.3-6.6,5.5-9.6c0.3,0.1,0.5,0.2,0.8,0.3c0,1.2,0,2.4,0,3.5c0,22.8,0,45.7,0,68.5
		c0,1.2-0.1,2.4,0.1,3.6c0.4,3.1,2,5.5,4.9,6.7c3.1,1.2,5.9,0.5,8.4-1.5c2.7-2.2,2.8-5.3,2.7-8.2c-0.6-12.1-0.1-24.3-0.2-36.4
		c0-2.5,0.8-3.2,3.3-2.9c2.2,0.2,2,1.8,2,3.2c0,12,0,23.9,0,35.9c0,1.4,0.1,2.9,0.4,4.3c0.7,3.7,3.7,6.1,7.5,6.2
		c3.5,0.1,6.9-2.4,7.8-5.8c0.5-1.8,0.5-3.5,0.5-5.3c0-22.5,0-45,0-67.5c0-1-0.2-2,0.5-3.1c2.6,2.7,3.8,5.9,5.1,9
		c2,4.6,3.1,9.4,3.9,14.3c0.7,4.2,3.5,6.3,7.3,5.8C183.6,162.3,185.6,159.1,185,155.4z"/>
	<path fill="#FDFDFD" d="M145,107.9c8.8,0,16-7.2,16-16c0-9-7.1-16-16.1-16.1c-8.6,0-15.9,7.3-16,16
		C128.9,100.7,136.1,108,145,107.9z"/>
</g>
</svg>
