<?xml version="1.0" encoding="utf-8"?>
<!-- Generator: Adobe Illustrator 17.1.0, SVG Export Plug-In . SVG Version: 6.00 Build 0)  -->
<!DOCTYPE svg PUBLIC "-//W3C//DTD SVG 1.1 Basic//EN" "http://www.w3.org/Graphics/SVG/1.1/DTD/svg11-basic.dtd">
<svg version="1.1" baseProfile="basic" id="Layer_1"
	 xmlns="http://www.w3.org/2000/svg" xmlns:xlink="http://www.w3.org/1999/xlink" x="0px" y="0px" viewBox="0 0 40 40"
	 xml:space="preserve">
<rect fill="#ABAFB0" width="40" height="40"/>
<g>
	<path fill="#FDFDFD" d="M22.9,15.6c-0.5-0.5-1.1-0.7-1.8-0.7c-0.6,0-1.2,0-1.7,0c-0.5,0-0.9,0.2-1.3,0.5c-1.2,1-2.1,2.2-2.7,3.7
		c-0.3,0.8-0.5,1.6-0.7,2.4c-0.1,0.5,0.1,0.9,0.5,1c0.5,0.2,1-0.1,1.1-0.6c0.1-0.8,0.3-1.5,0.6-2.2c0.2-0.5,0.5-0.9,0.8-1.3
		c0,0,0.1,0,0.1,0c0,0.2,0,0.3,0,0.5c0,3.2,0,6.4,0,9.6c0,0.2,0,0.3,0,0.5c0.1,0.4,0.3,0.8,0.7,0.9c0.4,0.2,0.8,0.1,1.2-0.2
		c0.4-0.3,0.4-0.7,0.4-1.2c-0.1-1.7,0-3.4,0-5.1c0-0.4,0.1-0.4,0.5-0.4c0.3,0,0.3,0.3,0.3,0.5c0,1.7,0,3.4,0,5c0,0.2,0,0.4,0.1,0.6
		c0.1,0.5,0.5,0.9,1,0.9c0.5,0,1-0.3,1.1-0.8c0.1-0.2,0.1-0.5,0.1-0.7c0-3.2,0-6.3,0-9.5c0-0.1,0-0.3,0.1-0.4
		c0.4,0.4,0.5,0.8,0.7,1.3c0.3,0.6,0.4,1.3,0.5,2c0.1,0.6,0.5,0.9,1,0.8c0.4-0.1,0.7-0.5,0.7-1C25.7,19.1,24.7,17.2,22.9,15.6z"/>
	<path fill="#FDFDFD" d="M20.5,14.8c1.2,0,2.2-1,2.2-2.3c0-1.3-1-2.2-2.3-2.3c-1.2,0-2.2,1-2.2,2.2C18.2,13.8,19.2,14.8,20.5,14.8z"
		/>
</g>
</svg>
