<?xml version="1.0" encoding="utf-8"?>
<!-- Generator: Adobe Illustrator 17.1.0, SVG Export Plug-In . SVG Version: 6.00 Build 0)  -->
<!DOCTYPE svg PUBLIC "-//W3C//DTD SVG 1.1 Basic//EN" "http://www.w3.org/Graphics/SVG/1.1/DTD/svg11-basic.dtd">
<svg version="1.1" baseProfile="basic" id="Layer_1"
	 xmlns="http://www.w3.org/2000/svg" xmlns:xlink="http://www.w3.org/1999/xlink" x="0px" y="0px" viewBox="0 0 290 290"
	 xml:space="preserve">
<rect x="0" y="0" fill="#ABAFB0" width="290" height="290"/>
<g>
	<path fill="#FDFDFD" d="M121.7,104.5c-3.1-2.7-6.3-4.3-10.5-4c-3.4,0.3-6.8,0.1-10.1,0c-3,0-5.5,1.1-7.8,2.8
		c-7.3,5.7-12.5,13.1-16.1,21.6c-1.9,4.5-3.1,9.2-3.9,14c-0.5,2.9,0.8,5.2,3.1,6c3.2,1,5.9-0.5,6.5-3.8c0.8-4.5,1.9-8.9,3.7-13.2
		c1.2-2.8,2.7-5.5,4.6-7.9c0.2,0.1,0.4,0.2,0.6,0.2c0,1,0,1.9,0,2.9c0,18.8,0,37.6,0,56.4c0,1-0.1,2,0.1,3c0.3,2.5,1.6,4.5,4,5.5
		c2.5,1,4.8,0.4,6.9-1.3c2.2-1.8,2.3-4.4,2.2-6.8c-0.5-10-0.1-20-0.2-30c0-2.1,0.7-2.6,2.7-2.4c1.8,0.2,1.6,1.5,1.6,2.6
		c0,9.9,0,19.7,0,29.6c0,1.2,0.1,2.4,0.3,3.6c0.6,3,3.1,5,6.1,5.1c2.9,0.1,5.7-2,6.5-4.8c0.4-1.4,0.4-2.9,0.4-4.4
		c0-18.5,0-37.1,0-55.6c0-0.8-0.2-1.6,0.4-2.6c2.1,2.2,3.1,4.8,4.2,7.4c1.6,3.8,2.6,7.7,3.2,11.8c0.6,3.5,2.9,5.2,6,4.7
		c2.6-0.4,4.3-3,3.8-6.1C138.1,125.5,132.2,113.8,121.7,104.5z"/>
	<path fill="#FDFDFD" d="M107.3,100c7.2,0,13.1-6,13.1-13.2c0-7.4-5.9-13.2-13.3-13.2c-7.1,0-13.1,6-13.1,13.2
		C94,94.1,100,100,107.3,100z"/>
	<path fill="#FDFDFD" d="M217.9,167.8c-2.2-13.7-8.1-25.3-18.5-34.6c-3.1-2.7-6.3-4.3-10.5-4c-3.4,0.3-6.8,0.1-10.1,0
		c-3,0-5.5,1.1-7.8,2.8c-7.3,5.7-12.5,13.1-16.1,21.6c-1.9,4.5-3.1,9.2-3.9,14c-0.5,2.9,0.8,5.2,3.1,6c3.2,1,5.9-0.5,6.5-3.8
		c0.8-4.5,1.9-8.9,3.7-13.2c1.2-2.8,2.7-5.5,4.6-7.9c0.2,0.1,0.4,0.2,0.6,0.2c0,1,0,1.9,0,2.9c0,18.8,0,37.6,0,56.4c0,1-0.1,2,0.1,3
		c0.3,2.5,1.6,4.5,4,5.5c2.5,1,4.8,0.4,6.9-1.3c2.2-1.8,2.3-4.4,2.2-6.8c-0.5-10-0.1-20-0.2-30c0-2.1,0.7-2.6,2.7-2.4
		c1.8,0.2,1.6,1.5,1.6,2.6c0,9.9,0,19.7,0,29.6c0,1.2,0.1,2.4,0.3,3.6c0.6,3,3.1,5,6.1,5.1c2.9,0.1,5.7-2,6.5-4.8
		c0.4-1.4,0.4-2.9,0.4-4.4c0-18.5,0-37.1,0-55.6c0-0.8-0.2-1.6,0.4-2.6c2.1,2.2,3.1,4.8,4.2,7.4c1.6,3.8,2.6,7.7,3.2,11.8
		c0.6,3.5,2.9,5.2,6,4.7C216.8,173.5,218.4,170.9,217.9,167.8z"/>
	<path fill="#FDFDFD" d="M185,128.7c7.2,0,13.1-6,13.1-13.2c0-7.4-5.9-13.2-13.3-13.2c-7.1,0-13.1,6-13.1,13.2
		C171.7,122.7,177.7,128.7,185,128.7z"/>
</g>
</svg>
