<?xml version="1.0" encoding="utf-8"?>
<!-- Generator: Adobe Illustrator 17.1.0, SVG Export Plug-In . SVG Version: 6.00 Build 0)  -->
<!DOCTYPE svg PUBLIC "-//W3C//DTD SVG 1.1 Basic//EN" "http://www.w3.org/Graphics/SVG/1.1/DTD/svg11-basic.dtd">
<svg version="1.1" baseProfile="basic" id="Layer_1"
	 xmlns="http://www.w3.org/2000/svg" xmlns:xlink="http://www.w3.org/1999/xlink" x="0px" y="0px" viewBox="0 0 290 290"
	 xml:space="preserve">
<rect x="0" fill="#ABAFB0" width="290" height="290"/>
<g>
	<polygon fill="#FFFFFF" points="97,72.5 119.9,72.5 119.9,72 73.1,72 73.1,216.5 119.9,216.5 119.9,144.5 97,144.5 	"/>
	<polygon fill="#FFFFFF" points="147,72.5 169.9,72.5 169.9,72 123.1,72 123.1,72.5 143.8,72.5 143.8,144.5 123.1,144.5 
		123.1,216.5 169.9,216.5 169.9,144.5 147,144.5 	"/>
	<polygon fill="#FFFFFF" points="173.1,72 173.1,72.5 193.8,72.5 193.8,144.5 173.1,144.5 173.1,216.5 219.9,216.5 219.9,72 	"/>
	<polygon fill="#ABAFB0" points="143.8,72.5 123.1,72.5 119.9,72.5 97,72.5 97,144.5 119.9,144.5 123.1,144.5 143.8,144.5 	"/>
	<polygon fill="#ABAFB0" points="193.8,72.5 173.1,72.5 169.9,72.5 147,72.5 147,144.5 169.9,144.5 173.1,144.5 193.8,144.5 	"/>
</g>
</svg>
