<?xml version="1.0" encoding="utf-8"?>
<!-- Generator: Adobe Illustrator 17.1.0, SVG Export Plug-In . SVG Version: 6.00 Build 0)  -->
<!DOCTYPE svg PUBLIC "-//W3C//DTD SVG 1.1 Basic//EN" "http://www.w3.org/Graphics/SVG/1.1/DTD/svg11-basic.dtd">
<svg version="1.1" baseProfile="basic" id="Layer_1"
	 xmlns="http://www.w3.org/2000/svg" xmlns:xlink="http://www.w3.org/1999/xlink" x="0px" y="0px" viewBox="0 0 290 290"
	 xml:space="preserve">
<rect x="0" y="0" fill="#ABAFB0" width="290" height="290"/>
<g>
	<path fill="#FDFDFD" d="M219.1,146.8c-0.5,18.8-7.3,36.2-21.5,50.4C182,212.8,162.9,220,141,218.5c-18-1.2-33.6-8.3-46.4-21.2
		c-15.6-15.7-22.8-34.9-21.3-56.9c1.2-18.1,8.6-33.8,21.5-46.7c15.6-15.6,34.7-22.8,56.6-21.3c18.3,1.2,34,8.8,46.7,22
		C211.8,108.7,218.8,125.9,219.1,146.8z M101.6,101.8c1.4,0,2.8-0.4,3.4,1.5c0.2,0.5,1.1,0.9,1.7,1.2c0.4,0.2,1,0.2,1-0.3
		c-0.2-1.4,1.3-2.2,1.4-3.6c0.1-0.9,0.5-2.2,2.2-1.5c0.5,0.2,1.9,0.6,1.4-1.1c-0.2-0.6,0.2-1.4,0.9-1.8c0.7-0.3,1-0.9,1.5-1.5
		c0.1-0.2,0-0.3-0.2-0.2c-0.9,0.2-2.3-0.1-2-0.8c0.8-1.8-0.1-2.4-1.5-2.8c0.3-0.7,0.9-0.7,1.3-1.1c0.3-0.3,0.4-0.9-0.1-0.8
		c-1.5,0.3-2.4-1.3-3.9-0.8c-0.2-0.8,1-1.6,0.5-1.6c-1.4,0-0.2-1.1-0.7-1.3c-0.4-0.1-0.7,0.2-1,0.4c-19.6,13.1-30.6,31.5-32.4,55
		c-1.2,15.7,2.5,30.4,11.3,43.6c13.8,20.6,33.2,31.5,58.1,32.4c0.7,0,1.4,0,2.1-0.3c2.4-0.7,2.9-2.9,4-4.7c0.5-0.9,0.1-1.4-0.7-1.6
		c-1.1-0.3-2.2-0.5-3.2-0.8c-1.3-0.4-2.4-1-3.3-2.2c-1.7-1.9-3.1-4.2-5.6-5.3c-0.3-0.1-0.7-0.3-0.6-0.7c0.5-2,0-4.2,1.9-5.8
		c0.9-0.7,1.8-1.4,2.6-2.3c0.7-0.8,0.7-1.7,0.3-2.5c-0.4-0.9-1.2-0.7-2-0.5c-0.9,0.3-1.8,0.4-2.5-0.5c-0.3-0.4-0.8-0.3-1.2-0.5
		c-1.9-0.5-3.3-1.7-4.2-3.3c-0.8-1.4-1.6-2.4-3.2-3.1c-1.2-0.5-2.6-1-3.5-1.9c-1.5-1.5-3.1-2.3-5.1-3c-3.6-1.3-6.5-4.1-8.8-7.2
		c-0.5-0.7-1.1-1.6-0.6-2.4c0.7-1.2,0.1-2-0.3-3c-0.3-0.9-0.7-1.3-1.7-0.6c-0.5,0.4-1.5,0.9-1.7-0.3c-0.2-1.7-2.3-2.8-1.4-4.8
		c0.1-0.1-0.1-0.4-0.2-0.5c-0.9-1.1-1.2-2.4-1.8-3.7c-0.1-0.3-1.8-1.5,0.3-1.5c0.1,0,0.2-0.2,0.2-0.4c0-1.9,0.7-4-0.4-5.7
		c-0.8-1.3-1-2.6-1-4c0-2.2,0.1-4.4,0.8-6.4c0.8-2.3,2.6-4.1,3.8-6.2c0.8-1.5,1.2-2.7,1-4.2c-0.5-3.8,0-7.2,2.3-10.4
		c1.3-1.8,1.6-4,0.9-6.3c-0.4-1.2-1.2-1.6-2.4-1.2c-1.5,0.5-2.4,0.1-2.9-1.4c-0.1-0.2-0.2-0.4-0.3-0.5c-1.9-1.4-3.2-3.4-5.1-4.7
		c-0.9-0.6-0.2-0.7,0.4-0.7C101.3,101.8,101.5,101.8,101.6,101.8z M151.6,168.6L151.6,168.6c-0.7,2.2-1.5,4.3-1.8,6.6
		c0.9,0.2,2,0.1,3.1,0.3c1.1,0.2,2.2,0.2,3.3,0.7c0.7,0.3,1.8,0.2,1.9,1.1c0,1-1,1.3-1.9,1.3c-0.4,0-0.7-0.1-1.1,0
		c-1.1,0.3-2.4-0.4-3.4,0.2c-0.9,0.5-1.5,0.6-2.6,0.2c-1-0.4-2.3-0.2-3.4-0.1c-1.2,0.2-2.4,0.3-3.6,0c-0.9-0.2-1.3-0.4-0.9-1.5
		c0.6-2,0.1-2.5-1.8-3c-1-0.2-2,0.3-3,0.2c-3.4-0.6-3.4-0.5-4.8,2.6c0,0.1-0.1,0.2-0.1,0.3c-0.5,0.9-0.1,1.2,0.8,1.3
		c0.5,0,0.9,0,1.4,0.1c2.6,0.3,3.5,1.6,3,4.1c-0.1,0.3-0.2,0.7-0.2,1c-0.2,1.7,1.3,3.2,2.9,2.6c1.2-0.5,2.3-0.3,3.3,0.3
		c0.9,0.5,1.5,0.3,1.8-0.5c0.5-1.1,1.4-1.4,2.4-1.6c0.9-0.2,1.7-0.4,2.4-0.9c0.8-0.5,4.2-0.5,4.7,0.1c1.3,1.6,3.1,1.1,4.5,0.8
		c1.5-0.3,3-0.6,4.4-1c0.6-0.2,1.2-0.1,1.2,0.7c0,1.1,0.7,1.2,1.4,1.7c1.9,1.3,3.9,1.2,6.1,0.9c1.8-0.2,3.6-0.1,4.9,1.7
		c0.4,0.5,0.9,1.6,1.8,1.6c2.5-0.1,5.2,0,7.6-0.9c1.1-0.4,2.1-0.7,3.2-0.6c0.4,0,0.9,0,1.4-0.1c0.7-0.1,1.4-0.9,2.1,0
		c0.6,0.9,0.8,1.9,0.3,2.9c-0.5,1.1-1.2,2-1.9,2.9c-1,1.2-2.3,2.3-2.8,3.7c-1.5,4-4.2,6.6-7.9,8.4c-1.3,0.6-2.6,1.4-3.8,2.2
		c-0.4,0.2-0.9,0.5-0.8,1.4c12.4-5.7,22.3-14.1,29.7-25.3c6.2-9.3,10.1-19.4,11.1-30.6c-0.7,2.2-2.2,4.1-2.9,6.3
		c-0.5,1.6-3.6,2.8-4.8,1.8c-0.7-0.6-1.3-0.8-2.2-0.9c-1.3-0.1-2.5-2.1-2.3-3.4c0.2-1.6,0.3-3.1-0.9-4.5c-0.9-1-1.3-2.2-1.3-3.6
		c0-1-0.1-1.9-0.1-2.9c0-0.8-0.1-1.4-1.2-1.3c-0.6,0-1.7-0.5-1.5-1c0.4-1.4,0.2-3,1.4-4.3c0.5-0.5,2.2-0.9,1.2-2.3
		c-1-1.5-1.2-3.2-1.1-5c0-0.6,0-1.2-0.3-1.8c-0.2-0.3-0.6-0.7-0.8-0.3c-1.2,2.5-1.4,0.3-1.9-0.3c-0.1-0.2-0.3-0.3-0.4-0.4
		c-1.5-1.3-2-3.4-3.7-4.5c-0.2-0.1-0.1-0.5-0.2-0.7c-0.6-1.5,0.8-2.1,1.3-3.2c0.3-0.7,0.8-1.3,0.1-2.1c-0.6-0.7-1.2-1-2.1-0.8
		c-1.4,0.3-3.6-0.5-4.3-1.7c-1,1.8-1.5,2.1-2.6,1.4c-0.7-0.5-1.3-1.1-1.9-1.7c-2.7-3.3-3.7-7.5-5.5-11.4c2,0.8,2.1,0.8,2.1,2.9
		c0,0.6,0.3,0.4,0.7,0.3c1.1-0.1,2.2,0,3.1,0.9c0.8,0.7,1.7,1,2.8,1c0.7,0,1-0.2,0.9-1c-0.4-2.3-2-3.5-4.4-3.2
		c-0.5,0.1-1-0.2-1.5-0.3c-2.2-0.5-3.6-2.2-5.1-3.6c-3.3-2.9-7.1-5.3-9.4-9.2c-0.4-0.6-0.5-0.7,0.3-1.2c0.9-0.5,1.2-1.4,0.9-2.7
		c-0.4-1.7-2.3-1.3-3-2.6c-0.3-0.5-0.7,0.7-1.3,0.7c-0.1,0-0.3,0.1-0.4,0.1c-2.8,0.2-5.6-0.1-8.3-1c-0.5-0.2-0.8-0.5-0.9-1
		c-0.2-0.5,0.3-0.7,0.6-0.9c0.3-0.2,0.9-0.3,0.7-0.8c-0.2-0.5-0.7-0.4-1.1-0.5c-1.6-0.3-3,0.2-4.5,0.4c-0.9,0.1-1.3,0.3-0.8,1.3
		c0.4,0.9-0.2,1.5-0.9,2c-0.8,0.4-1.4,0.4-1.9-0.5c-1.1-1.8-3.2-2.5-4.7-3.8c-0.2-0.2-0.6-0.2-0.9-0.2c-1.4,0.2-2.9,0.5-4.4,0.7
		c0.3,0.5,0.5,0.9,0.7,1.3c0.5,0.9,0.6,1.5-0.8,1.5c-1.2,0.1-2.3,0.3-3.4,0.8c-0.6,0.3-1.1,0.1-1.5-0.4c-1-1.2-2.1-0.8-3.1-0.2
		c-0.8,0.5-1.5,1.2-2.6,1.2c-0.3,0-2.1,2.6-2.1,3c0,0.2,0.2,0.4,0.3,0.5c1.1,0.7,0.4,1.5-0.1,2c-0.4,0.5-1.2,1.2-1.8,0.1
		c-0.2-0.4-0.6-0.3-0.9-0.1c-1,0.8-2.1,1.4-2.7,2.6c-0.1,0.2,0,0.3,0.2,0.2c1.7-0.2,2.9,0.9,4.2,1.7c0.7,0.4,0.9,1,0.7,1.8
		c-0.5,1.6,0.1,3.2,0.3,4.8c0.1,0.7,0.7,1.1,1.4,1.3c2.3,0.7,3.9-1.1,5.8-1.7c0.3-0.1,0.5-0.2,0.5-0.5c0.2-1.3,1.3-1.3,2.2-1.4
		c1.2-0.1,2.3-0.1,3.5-0.1c1.2-0.1,2.4-0.2,3.6-0.8c2-0.9,3.9-2.4,6.3-1.7c1,0.3,1.6,0,2.2-0.8c0.8-1.2,1.9-1.8,3.3-1.7
		c0.6,0,1.2,0,1.8-0.1c0.9-0.2,1.5,0.1,1.9,0.9c0.7,1.2,1.7,1.9,2.9,2.6c1.5,0.9,3.3,1.6,4,3.4c0.3,0.8,0.9,1.3,1.5,1.7
		c1,0.6,1.4,1.6,1.3,2.7c-0.2,2.2-0.6,4.3-1.3,6.3c-0.6,1.8-0.2,3.2,0,4.7c0.1,0.8,0.4,1.6,0.6,2.4c0.2,0.8-0.1,1.7-0.9,1.7
		c-1.6-0.1-3.2,0.1-4.6-1c-3.1-2.5-4.9-5.8-6.6-9.1c-0.7-1.3-1.4-2.6-2.1-3.8c-0.5-0.8-1.2-1.5-2.2-1.2c-0.9,0.3-1.6,0-2.3-0.5
		c-0.4-0.3-0.8-0.7-1.3-0.1c-0.4,0.5-0.6,1.1-0.1,1.7c2.3,2.4,4.5,5,7.1,7.2c0.4,0.4,1.1,0.6,0.9,1.3c-0.5,1.7-0.6,3.3-1,5
		c-0.1,0.7-0.1,1.1,0.3,1.6c1.1,1.4,2.4,2.6,3.1,4.1c0.5,1.1,1.1,1.5,2.1,1.9c2.1,0.7,3.4,2.3,3.8,4.3c0.2,1,0.7,1.6,1.5,1.5
		c2.1-0.1,2.1,1.2,1.9,2.6c0,0.2,0,0.3,0,0.5c0,0.9-1.4,2.7-2.2,2.8c-0.3,0.1-0.4-0.1-0.5-0.2c-0.6-0.9-1.6-0.4-2.4-0.8
		c-0.2-0.1-0.5,0.2-0.3,0.5c0.7,0.9-0.2,1.4-0.6,1.9c-0.8,1.3-2.6,1.4-3.5,2.7c-0.7,0.9-1.4,1.2-2.2,0.3c-0.8-0.8-1.4-0.1-2,0.3
		c-0.6,0.4-0.8,0.9-0.4,1.5c0.6,0.8,0.2,1.2-0.5,1.5c-0.5,0.2-1,0.5-1.5,0.8c-1.9,1-3.4,3.5-3,5.6c0.2,1-0.2,1.5-1,1.9
		c-1.6,0.8-2.9,1.8-4.3,2.9c-0.8,0.6-1.1,1.4-0.8,2.4c0.3,1,0.6,1.9,0.9,2.9c0.2,0.6,0.3,0.8,1,0.5c0.8-0.3,1.9-0.3,2.4,0.7
		c0.3,0.6,0.6,1,1,1.4c0.8,0.7,0.7,1.3,0,2c-0.4-0.2-0.7-0.4-1.1-0.7c-1.3,2.4-0.9,3,2.4,3.2c-0.1-0.6-0.3-1-0.9-1.2
		c-0.8-0.2-0.6-0.8-0.4-1.3c0.6,0,1,0.1,1.6,0.4c1,0.6,1.8,0.4,2.5-0.7C150.1,170.4,150.6,169.3,151.6,168.6z M132.8,172.6
		c0.8,0,1.4-0.2,1.9-0.5c0.6-0.4,1.2-0.6,1.8-0.7c1.8-0.3,1.9-0.6,1.1-2.3c-0.4-0.9-1.1-1.6-1.1-2.6c0-1.3-3.3-3.1-4.5-2.6
		c-0.1,0-0.2,0.1-0.2,0.2c-1.4,1.7-2.8,0.6-4.1,0c-2.6-1.4-4.7-0.8-5.5,2c-0.1,0.3-0.2,0.6-0.4,0.8c-1.3,2.2-0.7,4.4,0.4,6.4
		c1,1.9,4.1,1.8,5-0.1c0.4-0.7,0.9-0.9,1.6-1C130.3,172.2,131.7,172.2,132.8,172.6z M140,131.4c0.7,0,2.6-1,3-1.4
		c0.6-0.6-0.2-1-0.2-1.5c0-0.3,0.1-0.7,0.2-1c0.3-0.9-0.4-2.6-1.3-2.6c-1.2,0-1.7-0.4-2.3-1.4c-0.8-1.4-1.9-0.3-2.7,0.1
		c-1.9,1.1-2.1,1.7-1.4,3.6c0.7,2,2.6,2.9,4.2,4.1C139.7,131.5,139.9,131.4,140,131.4z M120.3,81.6c-2.4,0.2-4.7-0.2-6.9,0.9
		c-0.3,0.1-0.5,0.3-0.7,0.5c-0.3,0.3-0.8,0.5-0.6,0.9c0.2,0.5,0.8,0.5,1.2,0.4c0.8-0.2,1.6-0.1,2.4,0c0.4,0.1,1,0.2,1.3-0.2
		C118,83.3,119.2,82.5,120.3,81.6z M205.5,118.3c0.4,0,1.6-1.9,1.4-2.2c-1-1.2-1.2-2.9-2-4.2c-0.4-0.6-1.2-1.1-1.8-0.6
		c-0.6,0.4,0.1,1,0.4,1.4c0.6,1.2,1.7,2.2,0.8,3.9C203.9,117.3,204.9,118,205.5,118.3z M201.9,121.3c0.1-0.9,1-1.8,0.1-2.4
		c-0.7-0.4-1.5-0.9-2.2-1.4c-0.3-0.2-0.7-0.5-1.1-0.1c-0.3,0.4,0.1,0.6,0.1,0.9C199.3,119.9,201.2,119.9,201.9,121.3z M139.1,171.1
		c1.1,0.7,1.9,1.1,3,1.2c-0.8-0.8-0.8-1.7-0.8-3C140.6,170.2,140,170.6,139.1,171.1z M158,85.5c1.4,0.6,2.5,0.5,3.6,0.4
		c0.4,0,0.8-0.1,0.6-0.6c-0.1-0.4-0.4-0.7-0.9-0.6C160.4,85,159.4,85.2,158,85.5z M157.9,140.4c-0.8-0.1-1.5-0.2-1.9,0.6
		c-0.1,0.3,0.1,0.8,0.4,0.9C157.4,142.1,157.5,141.3,157.9,140.4z M143.9,118.1c-0.1,1.1-1.4,1.1-1.2,2.1c0,0.2,0.4,0.5,0.6,0.4
		c0.6-0.4,1.1-1,1-1.9C144.3,118.6,144.2,118.6,143.9,118.1z M150.7,127.2c0.5-0.6,1-1.1,0.8-1.9c-0.1-0.3-0.5-0.3-0.8-0.1
		C150.1,125.8,150.3,126.4,150.7,127.2z M151.5,216.3c0,0.1,0,0.3,0,0.4c1.4,0,2.7-0.3,4-0.8C154.2,216,152.9,216.1,151.5,216.3z
		 M201.3,115.3c0.6,0.1,0.6-0.3,0.6-0.7c0-0.4-0.1-0.9-0.6-0.8c-0.4,0-0.9,0.2-0.9,0.7C200.3,115,201,115,201.3,115.3z M201.4,124.2
		c0-0.6,0.7-1.2,0.1-1.8c-0.2-0.2-0.5-0.1-0.6,0.2C200.5,123.2,200.8,123.7,201.4,124.2z M144.1,122.8c0.7,0,1.4,0.6,2.3,0
		C145.5,122.4,144.8,122.6,144.1,122.8z"/>
	<path fill="#FCFCFC" d="M174,110.8c0,1.7-2.1,4.4-3.1,3.9c-0.7-0.4-1.5,0.3-1.8-0.3c-0.6-1-1.1-2.1-1.4-3.2
		c-0.2-0.7,2.7-3.2,3.5-3.2C172.7,108.1,174,109.3,174,110.8z"/>
	<path fill="#FCFCFC" d="M164.9,95.4c-1.6,1.1-3.3,1.5-5.1,1.5c-1.4,0-2.8-1.7-2.6-3.1c0.1-0.5,0.4-1.3,1-1.1
		c1.6,0.6,3.7-0.5,4.8,1.6C163.3,95,164.3,94.7,164.9,95.4z"/>
	<path fill="#FBFBFB" d="M153.7,88.1c1.9,0,2.8,1.4,4,2.2c0.3,0.2,0.1,0.6-0.1,0.8c-0.4,0.3-0.5,1.1-1.3,0.8c-1.4-0.5-2.7-1-4.1-1.3
		c-1-0.2-0.4-1.1,0-1.7C152.6,88.4,153.1,88,153.7,88.1z"/>
	<path fill="#F9F9F9" d="M163.7,179.5c-0.3,0.8-0.3,1.7-1.3,1.7c-0.6,0-1.6-1.7-1.5-2.5c0.1-0.6,0.8-1.2,1.2-1
		C162.9,177.9,163.5,178.6,163.7,179.5z"/>
	<path fill="#F9F9F9" d="M176.3,108.9c0.3-0.4,0.1-1.6,0.9-1.5c0.7,0.1,1,1.2,1.1,2c0,0.6-0.5,1-1.1,0.9
		C176.5,110.3,176.3,109.7,176.3,108.9z"/>
	<path fill="#FBFBFB" d="M80.2,133.6c0,1,0.1,2.3-0.3,3.5c-0.3,1-1,1-1.7,0.9c-0.8-0.1-0.6-0.9-0.4-1.4c0.7-1.8,0.6-3.8,0.8-5.7
		c0-0.5,0-1.1,0.8-1c0.7,0.1,1,0.5,1,1.1C80.4,131.8,80.3,132.6,80.2,133.6z"/>
	<path fill="#F9F9F9" d="M126,196.4c-0.8-0.2-1.9-0.5-1.8-1.1c0.1-0.6,0.5-2,1.3-1.9c0.9,0.1,1.6,1.1,1.8,2
		C127.5,196.1,126.5,196.1,126,196.4z"/>
</g>
</svg>
